<?xml version="1.0" encoding="utf-8"?>
<!-- Generator: Adobe Illustrator 19.0.0, SVG Export Plug-In . SVG Version: 6.00 Build 0)  -->
<svg version="1.1" id="layer" xmlns="http://www.w3.org/2000/svg" xmlns:xlink="http://www.w3.org/1999/xlink" x="0px" y="0px"
	 viewBox="-153 -46 652 652" style="enable-background:new -153 -46 652 652;" xml:space="preserve">
<style type="text/css">
	.st0{fill:#C9252C;}
	.st1{fill:#FFFFFF;}
</style>
<path id="XMLID_1_" class="st0" d="M468.2,415.8h-571.9c-15.5,0-28.1-12.6-28.1-28.1V135.1h572.2c15.4,0,27.8,12.5,27.8,27.8V415.8z
	"/>
<path id="XMLID_2_" class="st1" d="M86.5,234h33.8v106.3H86.5V234z M28,265.5v74.8h33.8v-80.9c0-14.3-15.8-25.4-29.5-25.4h-92.2
	c-13.6,0-29.5,11.1-29.5,25.4v80.9h33.8v-74.8c0-5.1,4.1-9.2,9.2-9.2h15.7v84H3.1v-84h14.4C22.5,256.3,28,260.2,28,265.5
	 M174.6,340.3h92.2c13.6,0,29.5-11.1,29.5-25.4V234h-33.8v74.8c0,5-4.1,9.1-9.2,9.1h-15.7v-84h-33.7v84h-14.4
	c-4.9,0-10.5-3.9-10.5-9.1V234h-33.8v80.9C145.1,329.2,160.9,340.3,174.6,340.3 M396.2,234H326v22.3h55.3c4.9,0,10.5,3.9,10.5,9.2
	V318h-19.4h-9.8c-4.9,0-10.5-3.9-10.5-9.2v-13.4l23.2-2.8v-20.6l-45.7,5.5c-6.4,0.7-11.2,6.1-11.2,12.6l-0.1,24.7
	c0,14.3,15.8,25.4,29.5,25.4h77.9v-80.9C425.6,245.1,409.8,234,396.2,234 M113.9,217.5l10.5-18.2l-10.5-18.2H93l-10.5,18.2L93,217.5
	H113.9z M77,196.6l10.5-18.2L77,160.2H56l-10.5,18.2L56,196.6H77z"/>
</svg>
