<?xml version="1.0" encoding="utf-8"?>
<!-- Generator: Adobe Illustrator 19.0.0, SVG Export Plug-In . SVG Version: 6.00 Build 0)  -->
<svg version="1.1" id="layer" xmlns="http://www.w3.org/2000/svg" xmlns:xlink="http://www.w3.org/1999/xlink" x="0px" y="0px"
	 viewBox="-153 -46 652 652" style="enable-background:new -153 -46 652 652;" xml:space="preserve">
<style type="text/css">
	.st0{fill:#ED1D24;}
	.st1{fill:#1A2C69;}
	.st2{fill:#FFFFFF;}
</style>
<g>
	<path class="st0" d="M-12,376.4l-1.5,0.5c-72-23.3-118.4-60-118.4-101.3c0-41.4,46.4-78.1,118.4-101.3l1.5,0.5l-0.5,1.5l0.1,0
		c-1.7,0.8-3.5,1.6-5.1,2.5c-50.6,25.6-78.5,60-78.5,96.8c0,36.8,27.9,71.2,78.5,96.8c1.7,0.9,3.4,1.7,5.1,2.5l-0.1,0L-12,376.4z"/>
	<path class="st0" d="M349.7,376.9l-1.4-0.6l0.5-1.5l-0.1,0c1.7-0.8,3.5-1.6,5.2-2.5c50.6-25.6,78.5-60,78.5-96.8
		c0-36.8-27.9-71.2-78.5-96.8c-1.7-0.9-3.4-1.6-5.1-2.5l0.1,0l-0.5-1.5l1.5-0.5c71.9,23.3,118.4,60,118.4,101.3
		C468.1,316.9,421.6,353.7,349.7,376.9"/>
	<path class="st1" d="M-74.2,275.6C-74.2,342,34.5,396,168.1,396c133.6,0,242.3-54,242.3-120.4S301.7,155.2,168.1,155.2
		C34.5,155.2-74.2,209.2-74.2,275.6"/>
	<path class="st2" d="M343.8,225.3h-29.9v103.5l0,0.2c0,3.4,2.8,6.1,6.3,6.1l0,0h23.5v-70.9V225.3z"/>
	<path class="st2" d="M344.4,207.1c0,6-7,10.9-15.5,10.9c-8.6,0-15.5-4.9-15.5-10.9c0-6,6.9-10.9,15.5-10.9
		C337.4,196.2,344.4,201.1,344.4,207.1"/>
	<path class="st2" d="M130.3,225.3h44.3l33,69.6l33-69.6h45.8v110.3h-23.6c-3.6,0-6.5-2.6-6.5-5.9v-76.3l-38.8,82.1H197l-37.9-80.2
		v74.3c0,3.2-2.9,5.9-6.5,5.9h-22.3V225.3z"/>
	<path class="st2" d="M62.3,273.8c13.1,0,17.5-3.3,17.5-12.7c0-9.2-4.4-12.7-17.5-12.7H22.9v25.3H62.3z M-7.2,224.7h71.5
		c33.6,0,45.6,9.9,45.6,36.2c0,20.6-7.1,30.7-25.9,34.5c-1.9,0.2-4.6,0.3-4.9,0.3L113,335H79c-2,0-4-0.9-5.2-2.3l-30-35.5H22.9v32
		c0,3.3-2.9,5.9-6.5,5.9H-7.2V224.7z"/>
</g>
</svg>
